<svg width="67" height="57" viewBox="0 0 67 57" fill="none" xmlns="http://www.w3.org/2000/svg">
<path d="M33.36 23.07C39.65 7.73001 50.39 0.0900143 66.9 0.140014C66.46 1.47001 66.2 2.42001 65.83 3.32001C59.08 20.12 52.32 36.91 45.52 53.69C45.16 54.58 44.47 55.34 43.94 56.16C43.31 55.34 42.46 54.61 42.08 53.69C37.78 43.15 33.56 32.57 29.3 22.01C26.94 16.15 23.21 11.42 17.14 8.47002C23.41 24.24 29.68 40.02 35.97 55.86C33.71 56.81 32.6 56.1 31.79 54.06C25.88 39.24 19.68 24.53 14.05 9.60001C12.37 5.13001 9.58001 3.95001 4.92001 3.84001C11.87 21.34 18.72 38.59 25.6 55.91C23.58 56.51 22.35 56.46 21.54 54.42C14.56 36.91 7.49001 19.43 0.450012 1.95001C0.310012 1.61001 0.26002 1.23001 0.0200195 0.320015C7.57002 -0.289985 14.21 1.65001 20.33 5.68002C26.48 9.73001 30.48 15.48 33.35 23.08L33.36 23.07ZM61.9 3.96001C55.9 4.03001 54.93 4.66001 53.04 9.34001C49.41 18.33 46.09 27.46 42.03 36.25C39.77 41.14 41.96 44.65 43.85 49.26C49.99 33.84 55.88 19.06 61.89 3.96001H61.9ZM38.72 36.07C42.59 26.33 46.17 17.34 49.75 8.35001C43.39 11.57 39.96 16.84 37.03 22.86C34.68 27.69 36.45 31.32 38.72 36.07Z" fill="#415380"/>
</svg>
