<?xml version="1.0" encoding="UTF-8"?>
<svg id="Capa_1" data-name="Capa 1" xmlns="http://www.w3.org/2000/svg" viewBox="0 0 314.25 136.24">
  <defs>
    <style>
      .cls-1 {
        fill: #415380;
      }

      .cls-1, .cls-2 {
        stroke-width: 0px;
      }

      .cls-2 {
        fill: #aee5d1;
      }
    </style>
  </defs>
  <g>
    <path class="cls-1" d="M251.68,85.85c3.64,4.07,5.46,9.44,5.46,16.1v34.3c-2.25,0-4.15-.79-5.7-2.38-1.55-1.59-2.32-3.51-2.32-5.76v-24.18c0-5.11-1.32-9.18-3.95-12.21-2.64-3.02-6.43-4.53-11.39-4.53s-8.76,1.69-11.86,5.06c-3.1,3.37-4.65,7.54-4.65,12.5v23.37c0,2.25-.8,4.17-2.38,5.76-1.59,1.59-3.51,2.38-5.76,2.38v-55.45h8.02v10.23c4.26-7.52,10.62-11.28,19.06-11.28,6.67,0,11.82,2.03,15.46,6.1Z"/>
    <path class="cls-1" d="M313.82,94.97c.27,1.78.41,3.3.41,4.54v35.8c-2.17,0-4.03-.77-5.58-2.32-1.55-1.55-2.32-3.41-2.32-5.58v-1.86c-4.57,7.13-10.81,10.7-18.72,10.7-5.58,0-10.08-1.53-13.49-4.59-3.41-3.06-5.11-6.96-5.11-11.68v-.7c0-5.5,2.21-9.53,6.63-12.09,4.42-2.56,9.49-3.84,15.23-3.84h8.14c0,.39-.14,1.09-.41,2.09-.27,1.01-.89,2.02-1.86,3.02-.97,1.01-2.34,1.51-4.13,1.51h-1.86c-3.64,0-6.82.72-9.53,2.15-2.71,1.43-4.07,3.82-4.07,7.15,0,3.02,1.13,5.41,3.37,7.15,2.25,1.74,5.08,2.62,8.48,2.62,4.96,0,9.09-1.59,12.38-4.77,3.3-3.18,4.94-7.28,4.94-12.32v-12.32c0-4.49-1.2-7.87-3.6-10.11-2.4-2.25-5.93-3.37-10.58-3.37-3.64,0-6.61.83-8.89,2.5-2.29,1.67-3.93,3.78-4.94,6.34l-7.67-2.44c1.4-3.49,3.91-6.63,7.56-9.42,3.64-2.79,8.37-4.19,14.18-4.19,5.42,0,9.78,1.05,13.08,3.14,3.29,2.09,5.68,4.84,7.15,8.25.54,1.32.95,2.87,1.22,4.65Z"/>
  </g>
  <path class="cls-1" d="M150.46,29.89C158.66,9.9,172.67-.07,194.19,0c-.58,1.74-.92,2.97-1.39,4.15-8.81,21.9-17.62,43.79-26.47,65.67-.47,1.16-1.37,2.15-2.07,3.22-.82-1.07-1.93-2.02-2.42-3.22-5.61-13.74-11.11-27.53-16.66-41.29-3.08-7.65-7.93-13.81-15.85-17.65,8.17,20.56,16.34,41.12,24.55,61.78-2.94,1.23-4.39.32-5.45-2.34-7.7-19.32-15.79-38.5-23.12-57.96-2.2-5.82-5.83-7.36-11.9-7.5,9.06,22.81,18,45.3,26.96,67.88-2.64.79-4.23.72-5.3-1.95-9.09-22.83-18.31-45.61-27.49-68.4-.18-.44-.25-.93-.57-2.13,9.85-.8,18.49,1.73,26.47,6.98,8.02,5.28,13.23,12.77,16.97,22.68ZM187.67,4.98c-7.83.09-9.09.91-11.54,7.01-4.73,11.72-9.06,23.62-14.36,35.08-2.95,6.38-.09,10.95,2.38,16.96,8.01-20.11,15.68-39.37,23.52-59.05ZM157.46,46.84c5.05-12.69,9.72-24.41,14.38-36.13-8.29,4.2-12.76,11.07-16.58,18.92-3.07,6.3-.75,11.03,2.2,17.22Z"/>
  <path class="cls-2" d="M48.54,82.88c2.21-1.4,4.63-2.09,7.27-2.09l-27.9,55.45L0,80.79c2.71,0,5.23.72,7.55,2.15,2.33,1.43,4.07,3.39,5.23,5.87l15.11,31.16,15.46-31.39c1.24-2.4,2.97-4.3,5.17-5.7Z"/>
  <path class="cls-2" d="M74.4,65.44c-1.32,1.16-2.87,1.67-4.65,1.51-1.47-.08-2.77-.68-3.9-1.8-1.12-1.12-1.68-2.46-1.68-4.01,0-1.7.58-3.18,1.74-4.42,1.16-1.24,2.56-1.86,4.18-1.86.31,0,.85.08,1.63.23,1.32.31,2.42,1.03,3.31,2.15.89,1.13,1.34,2.38,1.34,3.78,0,1.78-.66,3.25-1.98,4.42ZM74.28,80.79v47.2c0,2.25-.8,4.19-2.38,5.81-1.59,1.63-3.51,2.44-5.75,2.44v-55.45h8.14Z"/>
  <path class="cls-2" d="M111.13,129.03c2.09,0,3.76-.12,5-.35v6.74c-.85.23-1.9.43-3.14.58-1.24.16-2.33.23-3.26.23-10.46,0-15.69-4.92-15.69-14.76v-33.95h-10.23v-7.09h10.23v-16.04c2.25,0,4.14.77,5.7,2.32,1.55,1.55,2.33,3.45,2.33,5.7v8.02h14.06c0,1.94-.7,3.6-2.09,5s-3.1,2.09-5.11,2.09h-6.86v33.71c0,5.19,3.02,7.79,9.07,7.79Z"/>
  <path class="cls-2" d="M170.25,94.97c.27,1.78.41,3.3.41,4.54v35.8c-2.17,0-4.03-.77-5.58-2.32-1.55-1.55-2.32-3.41-2.32-5.58v-1.86c-4.57,7.13-10.81,10.7-18.72,10.7-5.58,0-10.08-1.53-13.49-4.59-3.41-3.06-5.11-6.96-5.11-11.68v-.7c0-5.5,2.21-9.53,6.63-12.09,4.42-2.56,9.49-3.84,15.23-3.84h8.14c0,.39-.14,1.09-.41,2.09-.27,1.01-.89,2.02-1.86,3.02-.97,1.01-2.34,1.51-4.13,1.51h-1.86c-3.64,0-6.82.72-9.53,2.15-2.71,1.43-4.07,3.82-4.07,7.15,0,3.02,1.13,5.41,3.37,7.15,2.25,1.74,5.08,2.62,8.48,2.62,4.96,0,9.09-1.59,12.38-4.77,3.3-3.18,4.94-7.28,4.94-12.32v-12.32c0-4.49-1.2-7.87-3.6-10.11-2.4-2.25-5.93-3.37-10.58-3.37-3.64,0-6.61.83-8.89,2.5-2.29,1.67-3.93,3.78-4.94,6.34l-7.67-2.44c1.4-3.49,3.91-6.63,7.56-9.42,3.64-2.79,8.37-4.19,14.18-4.19,5.42,0,9.78,1.05,13.08,3.14,3.29,2.09,5.68,4.84,7.15,8.25.54,1.32.95,2.87,1.22,4.65Z"/>
  <path class="cls-2" d="M183.91,51.61h8.25v84.63h-8.25V51.61Z"/>
  <path class="cls-1" d="M298.47,72.82l6.24-14.64c1.4-3.06,4.46-3.82,6.62-3.06,2.93,1.15,3.82,4.58,1.91,7.13l-8.02,10.57h-6.75Z"/>
</svg>