<svg width="243" height="105" viewBox="0 0 243 105" fill="none" xmlns="http://www.w3.org/2000/svg">
<g id="Group">
<g id="Group_2">
<path id="Vector" d="M194 65.99C196.79 69.11 198.19 73.23 198.19 78.34V104.65C196.47 104.65 195.01 104.04 193.82 102.82C192.63 101.6 192.04 100.13 192.04 98.41V79.86C192.04 75.94 191.03 72.81 189.01 70.5C186.99 68.18 184.07 67.02 180.27 67.02C176.47 67.02 173.55 68.31 171.17 70.9C168.79 73.49 167.6 76.68 167.6 80.49V98.41C167.6 100.14 166.99 101.61 165.77 102.82C164.55 104.04 163.08 104.65 161.35 104.65V62.11H167.5V69.96C170.77 64.19 175.64 61.31 182.12 61.31C187.23 61.31 191.19 62.87 193.98 65.99H194Z" fill="#415380"/>
<path id="Vector_2" d="M241.67 72.99C241.88 74.36 241.98 75.52 241.98 76.47V103.94C240.32 103.94 238.89 103.35 237.7 102.16C236.51 100.97 235.92 99.54 235.92 97.88V96.45C232.41 101.92 227.62 104.65 221.56 104.65C217.28 104.65 213.83 103.48 211.22 101.13C208.6 98.78 207.3 95.79 207.3 92.17V91.63C207.3 87.41 208.99 84.32 212.38 82.35C215.77 80.39 219.66 79.41 224.06 79.41H230.3C230.3 79.71 230.2 80.24 229.99 81.01C229.78 81.78 229.31 82.56 228.56 83.33C227.82 84.1 226.76 84.49 225.39 84.49H223.96C221.16 84.49 218.73 85.04 216.65 86.14C214.57 87.24 213.53 89.07 213.53 91.62C213.53 93.94 214.39 95.77 216.12 97.1C217.84 98.44 220.01 99.11 222.63 99.11C226.44 99.11 229.6 97.89 232.13 95.45C234.66 93.01 235.92 89.86 235.92 86V76.55C235.92 73.1 235 70.52 233.15 68.79C231.31 67.07 228.6 66.2 225.03 66.2C222.23 66.2 219.96 66.84 218.21 68.12C216.46 69.4 215.19 71.02 214.42 72.98L208.53 71.11C209.6 68.43 211.53 66.03 214.33 63.89C217.13 61.75 220.75 60.68 225.21 60.68C229.37 60.68 232.71 61.48 235.24 63.09C237.77 64.69 239.59 66.81 240.72 69.42C241.14 70.43 241.45 71.62 241.66 72.99H241.67Z" fill="#415380"/>
</g>
<path id="Vector_3" d="M116.36 23.07C122.65 7.73001 133.39 0.0900143 149.9 0.140014C149.46 1.47001 149.2 2.42001 148.83 3.32001C142.08 20.12 135.32 36.91 128.52 53.69C128.16 54.58 127.47 55.34 126.94 56.16C126.31 55.34 125.46 54.61 125.08 53.69C120.78 43.15 116.56 32.57 112.3 22.01C109.94 16.15 106.21 11.42 100.14 8.47002C106.41 24.24 112.68 40.02 118.97 55.86C116.71 56.81 115.6 56.1 114.79 54.06C108.88 39.24 102.68 24.53 97.05 9.60001C95.37 5.13001 92.58 3.95001 87.92 3.84001C94.87 21.34 101.72 38.59 108.6 55.91C106.58 56.51 105.35 56.46 104.54 54.42C97.56 36.91 90.49 19.43 83.45 1.95001C83.31 1.61001 83.26 1.23001 83.02 0.320015C90.57 -0.289985 97.21 1.65001 103.33 5.68002C109.48 9.73001 113.48 15.48 116.35 23.08L116.36 23.07ZM144.9 3.96001C138.9 4.03001 137.93 4.66001 136.04 9.34001C132.41 18.33 129.09 27.46 125.03 36.25C122.77 41.14 124.96 44.65 126.85 49.26C132.99 33.84 138.88 19.06 144.89 3.96001H144.9ZM121.72 36.07C125.59 26.33 129.17 17.34 132.75 8.35001C126.39 11.57 122.96 16.84 120.03 22.86C117.68 27.69 119.45 31.32 121.72 36.07Z" fill="#415380"/>
<path id="Vector_4" d="M38.1599 63.72C39.8499 62.65 41.7099 62.11 43.7299 62.11L22.3299 104.65L0.929932 62.11C3.00993 62.11 4.93993 62.66 6.72993 63.76C8.50993 64.86 9.84993 66.36 10.7399 68.26L22.3299 92.16L34.1899 68.08C35.1399 66.24 36.4599 64.78 38.1599 63.71V63.72Z" fill="#415380"/>
<path id="Vector_5" d="M57.9999 50.34C56.9899 51.23 55.7999 51.62 54.4299 51.5C53.2999 51.44 52.2999 50.98 51.4399 50.12C50.5799 49.26 50.1499 48.23 50.1499 47.04C50.1499 45.73 50.5899 44.6 51.4899 43.65C52.3799 42.7 53.4499 42.22 54.6999 42.22C54.9399 42.22 55.3499 42.28 55.9499 42.4C56.9599 42.64 57.8099 43.19 58.4899 44.05C59.1699 44.91 59.5199 45.88 59.5199 46.95C59.5199 48.32 59.0099 49.45 57.9999 50.34ZM57.9099 62.11V98.32C57.9099 100.04 57.2999 101.53 56.0799 102.78C54.8599 104.03 53.3899 104.65 51.6699 104.65V62.11H57.9099Z" fill="#415380"/>
<path id="Vector_6" d="M86.19 99.12C87.79 99.12 89.07 99.03 90.02 98.85V104.02C89.37 104.2 88.56 104.35 87.61 104.47C86.66 104.59 85.83 104.65 85.11 104.65C77.08 104.65 73.07 100.88 73.07 93.32V67.28H65.22V61.84H73.07V49.53C74.79 49.53 76.25 50.12 77.44 51.31C78.63 52.5 79.22 53.96 79.22 55.68V61.83H90.01C90.01 63.32 89.48 64.59 88.41 65.66C87.34 66.73 86.03 67.26 84.49 67.26H79.23V93.12C79.23 97.1 81.55 99.09 86.19 99.09V99.12Z" fill="#415380"/>
<path id="Vector_7" d="M131.53 72.99C131.74 74.36 131.84 75.52 131.84 76.47V103.94C130.18 103.94 128.75 103.35 127.56 102.16C126.37 100.97 125.78 99.54 125.78 97.88V96.45C122.27 101.92 117.48 104.65 111.42 104.65C107.14 104.65 103.69 103.48 101.08 101.13C98.4599 98.78 97.1599 95.79 97.1599 92.17V91.63C97.1599 87.41 98.8499 84.32 102.24 82.35C105.63 80.39 109.52 79.41 113.92 79.41H120.16C120.16 79.71 120.06 80.24 119.85 81.01C119.64 81.78 119.17 82.56 118.42 83.33C117.68 84.1 116.62 84.49 115.25 84.49H113.82C111.02 84.49 108.59 85.04 106.51 86.14C104.43 87.24 103.39 89.07 103.39 91.62C103.39 93.94 104.25 95.77 105.98 97.1C107.7 98.44 109.87 99.11 112.49 99.11C116.3 99.11 119.46 97.89 121.99 95.45C124.52 93.01 125.78 89.86 125.78 86V76.55C125.78 73.1 124.86 70.52 123.01 68.79C121.17 67.07 118.46 66.2 114.89 66.2C112.09 66.2 109.82 66.84 108.07 68.12C106.32 69.4 105.05 71.02 104.28 72.98L98.3899 71.11C99.4599 68.43 101.39 66.03 104.19 63.89C106.99 61.75 110.61 60.68 115.07 60.68C119.23 60.68 122.57 61.48 125.1 63.09C127.63 64.69 129.45 66.81 130.58 69.42C131 70.43 131.31 71.62 131.52 72.99H131.53Z" fill="#415380"/>
<path id="Vector_8" d="M142.01 39.73H148.34V104.65H142.01V39.73Z" fill="#415380"/>
<path id="Vector_9" d="M229.9 56L234.69 44.77C235.76 42.43 238.11 41.84 239.77 42.43C242.02 43.31 242.7 45.95 241.24 47.9L235.09 56.01H229.91L229.9 56Z" fill="#415380"/>
</g>
</svg>
