<svg width="67" height="57" viewBox="0 0 67 57" fill="none" xmlns="http://www.w3.org/2000/svg">
<path d="M33.34 22.9302C39.63 7.59024 50.37 -0.0497562 66.88 0.000243823C66.44 1.33024 66.18 2.28024 65.81 3.18024C59.06 19.9802 52.3 36.7702 45.5 53.5502C45.14 54.4402 44.45 55.2002 43.92 56.0202C43.29 55.2002 42.44 54.4702 42.06 53.5502C37.76 43.0102 33.54 32.4302 29.28 21.8702C26.92 16.0102 23.19 11.2802 17.12 8.33025C23.39 24.1002 29.66 39.8802 35.95 55.7202C33.69 56.6702 32.58 55.9602 31.77 53.9202C25.86 39.1002 19.66 24.3902 14.03 9.46024C12.35 4.99024 9.55999 3.81024 4.89999 3.70024C11.85 21.2002 18.7 38.4502 25.58 55.7702C23.56 56.3702 22.33 56.3202 21.52 54.2802C14.54 36.7702 7.46999 19.2902 0.429993 1.81024C0.289993 1.47024 0.24 1.09024 0 0.180244C7.55 -0.429756 14.19 1.51024 20.31 5.54024C26.46 9.59024 30.46 15.3402 33.33 22.9402L33.34 22.9302ZM61.88 3.82024C55.88 3.89024 54.91 4.52024 53.02 9.20024C49.39 18.1902 46.07 27.3202 42.01 36.1102C39.75 41.0002 41.94 44.5102 43.83 49.1202C49.97 33.7002 55.86 18.9202 61.87 3.82024H61.88ZM38.7 35.9302C42.57 26.1902 46.15 17.2002 49.73 8.21024C43.37 11.4302 39.94 16.7002 37.01 22.7202C34.66 27.5502 36.43 31.1802 38.7 35.9302Z" fill="#AEE5D1"/>
</svg>
